<?xml version="1.0" encoding="UTF-8"?>
<svg part="pointer-img" class="pointer-img" width="49px" height="57px" viewBox="0 0 49 57" version="1.1" xmlns="http://www.w3.org/2000/svg" xmlns:xlink="http://www.w3.org/1999/xlink">
    <!-- Generator: Sketch 50.2 (55047) - http://www.bohemiancoding.com/sketch -->
    <title>Group</title>
    <path part="pointer-fill" class="pointer-fill" d="M36,56.5 C36,49.0441559 27.9411255,43 18,43 C8.0588745,43 0,49.0441559 0,56.5 C4,56.5 28,56.5 36,56.5 Z"></path>
    <path part="pointer-border" class="pointer-border" d="M36,56.5 C28,56.5 4,56.5 0,56.5 C0,49.0441559 8.0588745,43 18,43 C27.9411255,43 36,49.0441559 36,56.5 Z M34.5,56.5 C26.5,56.5 5.5,56.5 1.5,56.5 C1.5,49.0441559 9,44.2999878 18,44.2999878 C27,44.2999878 34.5,49.0441559 34.5,56.5 Z"></path>
    <ellipse part="pointer-fill" class="pointer-fill" cx="35" cy="29.5" rx="14" ry="11.5"></ellipse>
    <path part="pointer-border" class="pointer-border" d="M35,41 C27.2680135,41 21,35.8512746 21,29.5 C21,23.1487254 27.2680135,18 35,18 C42.7319865,18 49,23.1487254 49,29.5 C49,35.8512746 42.7319865,41 35,41 Z M35,40 C42.1797017,40 48,35.2989899 48,29.5 C48,23.7010101 42.1797017,19 35,19 C27.8202983,19 22,23.7010101 22,29.5 C22,35.2989899 27.8202983,40 35,40 Z"></path>
    <path part="pointer-fill" class="pointer-fill" d="M17.5,17 C22.1294457,17 27,13.1944204 27,8.5 C27,3.80557963 22.1294457,0 17.5,0 C12.8705543,0 8,3.80557963 8,8.5 C8,13.1944204 12.8705543,17 17.5,17 Z"></path>
    <path part="pointer-border" class="pointer-border" d="M17.5,17 C12.8705543,17 8,13.1944204 8,8.5 C8,3.80557963 12.8705543,0 17.5,0 C22.1294457,0 27,3.80557963 27,8.5 C27,13.1944204 22.1294457,17 17.5,17 Z M17.5,16 C21.6421356,16 26,12.6421356 26,8.5 C26,4.35786438 21.6421356,1 17.5,1 C13.3578644,1 9,4.35786438 9,8.5 C9,12.6421356 13.3578644,16 17.5,16 Z"></path>
</svg>